<svg id="Layer_1" data-name="Layer 1" xmlns="http://www.w3.org/2000/svg" viewBox="0 0 231.29 52.21"><defs><style>.cls-1{fill:#fff;}</style></defs><title>caren_logo</title><path class="cls-1" d="M35.74,76.43c-16.21,0-23.38-9.87-23.38-25.27,0-17.27,10.05-26.94,24.49-26.94a31,31,0,0,1,13,2.66l-2.19,6.91a29.86,29.86,0,0,0-10.34-2.07c-10.46,0-14.94,7.6-14.94,18.65,0,12.24,4.87,18.24,15.12,18.24a29.45,29.45,0,0,0,11-2.05l1.7,7a38.61,38.61,0,0,1-14.44,2.86" transform="translate(-12.36 -24.22)"/><path class="cls-1" d="M129.27,24.41c-6.1,0-10.81,1.51-14.29,4.21l-.38-3.52h-7.27V75.44h9.35V48.83h.08c0-9.44,2.28-17.12,11.88-17.12.36,0,.69,0,1,.06L132,24.54c-.93-.07-1.84-.12-2.72-.12" transform="translate(-12.36 -24.22)"/><path class="cls-1" d="M76,76.4v0H74.35c-10.55,0-17.11-5.23-17.11-14.9,0-10.85,9.45-14.6,23.68-14.6h9.16c-1.14-8.54-7.38-15.21-16.33-15.21A29.89,29.89,0,0,0,63.4,33.79l-2.19-6.91a31,31,0,0,1,13-2.66c14.43,0,24.48,9.67,24.48,26.94,0,15.2-7,25-22.78,25.24M90.63,53.66v0H80.92c-9.45,0-13.94,2-13.94,7.59,0,5.13,3.08,8.3,9.16,8.3a17,17,0,0,0,3.62-.39c7.34-1.62,10.86-7.32,10.86-15.48" transform="translate(-12.36 -24.22)"/><path class="cls-1" d="M174.47,39.13c0-9.67-6.57-14.9-17.12-14.9h-1.6C140,24.5,133,34.29,133,49.49c0,17.27,10.06,26.94,24.49,26.94a30.8,30.8,0,0,0,13-2.67V65.94a25.56,25.56,0,0,1-3,1.18,29,29,0,0,1-9.54,1.8c-8.94,0-15.19-6.67-16.32-15.2h9.15c14.24,0,23.7-3.74,23.7-14.59M141.06,47v0c0-8.16,3.53-13.86,10.86-15.47a16.84,16.84,0,0,1,3.63-.38c6.08,0,9.16,3.16,9.16,8.28,0,5.63-4.47,7.59-13.94,7.59Z" transform="translate(-12.36 -24.22)"/><path class="cls-1" d="M232,31.33A5.84,5.84,0,1,1,237.83,37,5.73,5.73,0,0,1,232,31.33m1.11,0a4.73,4.73,0,1,0,4.74-4.49,4.61,4.61,0,0,0-4.74,4.49m7.15,2.82h-1l-1.69-2.62h-1v2.62h-.88V28.47h2.57a2.89,2.89,0,0,1,1.43.27,1.41,1.41,0,0,1,.66,1.22c0,1.12-.82,1.54-1.87,1.57Zm-2.76-3.33c.83,0,2,.15,2-.87,0-.74-.66-.85-1.39-.85h-1.52v1.71Z" transform="translate(-12.36 -24.22)"/><path class="cls-1" d="M223.49,30.81l-6.57,6.58a14.29,14.29,0,0,1,1.1,2.34L225,32.78a17.51,17.51,0,0,0-1.47-2M207,24.41h-.22L183.52,47.69v3.44l10.36-10.36c1.38-4.6,4.2-7.42,8.51-8.51l7.71-7.7c-1-.09-2-.14-3.08-.14m18.81,9.84-7.24,7.24a24.09,24.09,0,0,1,.54,2.91l7.77-7.77a21.25,21.25,0,0,0-1.06-2.38m-5.37-6.18-6.24,6.24A10.64,10.64,0,0,1,216,36l6.39-6.39a16.54,16.54,0,0,0-1.89-1.55m-3.76-2-6.33,6.33a12.08,12.08,0,0,1,2.44,1L219,27.17a18.42,18.42,0,0,0-2.33-1.11m-25.6,2.53v0l-7.57,7.57v3.44l14.23-14.23a18.65,18.65,0,0,0-6.66,3.24m9.61-3.86L183.52,41.91v3.44l20.92-20.92a31.58,31.58,0,0,0-3.74.29m18.75,50.71h3.29l6-6V66l-9.28,9.28ZM190.72,25.1h-1.95l-5.26,5.26V33.8l7.35-7.35Zm-7.2,0V28l2.93-2.92Zm0,31.8,9.36-9.36a31.53,31.53,0,0,1,.33-3.77l-9.7,9.69Zm28.64-32.08-7,7c.31,0,.63-.06,1-.07a18.82,18.82,0,0,1,2.33.23L215,25.47a24.16,24.16,0,0,0-2.8-.65M219.41,58v3.44l9.31-9.3V48.68Zm0,9.2,9.29-9.29V54.46l-9.3,9.3Zm9.08,8.24.21-.21V71.78l-3.65,3.65Zm-.07-32.24-9,9v3.44l9.28-9.28c0-1.1-.12-2.16-.25-3.19m-9,29.76,9.28-9.28V60.23l-9.29,9.29Zm-35.92-4.5,9.31-9.31V55.69L183.52,65Zm44-30.07-8.15,8.15c0,.73.07,1.48.07,2.27v1.1l8.74-8.73a27.89,27.89,0,0,0-.66-2.79m-44,35.85,9.3-9.3V61.48l-9.31,9.31Zm0-11.55,9.32-9.32V49.91l-9.33,9.33Zm4.57,12.76,4.72-4.72V67.27l-8.17,8.17Zm4.71,0V73.05l-2.38,2.38Z" transform="translate(-12.36 -24.22)"/></svg>